<svg xmlns="http://www.w3.org/2000/svg" version="1.1" data-icon="ban" viewBox="0 0 32 40" x="0px" y="0px"><path d="M16 0c-8.819 0-16 7.181-16 16 0 8.819 7.181 16 16 16 8.819 0 16-7.181 16-16 0-8.819-7.181-16-16-16zm0 3c3.052 0 5.848 1.062 8.063 2.813l-18.25 18.25c-1.751-2.214-2.813-5.01-2.813-8.063 0-7.197 5.803-13 13-13zm10.188 4.938c1.751 2.214 2.813 5.01 2.813 8.063 0 7.197-5.803 13-13 13-3.052 0-5.848-1.062-8.063-2.813l18.25-18.25z"/><text x="0" y="47" fill="#000000" font-size="5px" font-weight="bold" font-family="'Helvetica Neue', Helvetica, Arial-Unicode, Arial, Sans-serif">Created by useiconic.com</text><text x="0" y="52" fill="#000000" font-size="5px" font-weight="bold" font-family="'Helvetica Neue', Helvetica, Arial-Unicode, Arial, Sans-serif">from the Noun Project</text></svg>